<svg width="20" height="20" viewBox="0 0 28 24" fill="none" xmlns="http://www.w3.org/2000/svg">
<g id="Group">
<path id="Vector" d="M26.0859 0.482826C24.2265 1.16642 1.28511 9.97657 0.946046 10.1406C-0.175048 10.6711 -0.306298 11.3711 0.628858 11.8469C0.721827 11.8961 2.26948 12.3883 4.07964 12.9516L7.36636 13.9742L14.8257 9.30392C18.9328 6.73907 22.3726 4.60626 22.471 4.57345C22.7281 4.48595 22.9468 4.49142 23.0453 4.59532C23.1164 4.66642 23.1218 4.69923 23.0617 4.80314C23.0289 4.87423 20.3 7.35157 17.0078 10.3047C13.7156 13.2633 11.0085 15.7024 10.9976 15.7297C10.9867 15.757 10.8773 17.2336 10.7515 19.011L10.5218 22.2375L10.7734 22.2047C10.9101 22.1883 11.1234 22.1172 11.2492 22.0461C11.3804 21.9805 12.2335 21.2039 13.1578 20.3235C14.0765 19.443 14.864 18.7047 14.9023 18.6938C14.9406 18.6774 16.4062 19.7164 18.1617 21.0016C19.9117 22.2867 21.4812 23.3969 21.6507 23.4735C22.0937 23.6813 22.5859 23.6977 22.9085 23.5281C23.1984 23.375 23.4773 22.9922 23.5976 22.593C23.6414 22.4399 24.6476 17.8078 25.8234 12.3008C27.7867 3.13517 27.9671 2.24923 27.9671 1.77345C27.9671 1.32501 27.9507 1.21564 27.8304 0.980482C27.7484 0.810951 27.6007 0.641418 27.4585 0.542982C27.1359 0.318764 26.6 0.29142 26.0859 0.482826Z" fill="#45b2ed"/>
</g>
</svg>
